<?xml version="1.0" encoding="utf-8"?>
<!-- Generator: Adobe Illustrator 28.1.0, SVG Export Plug-In . SVG Version: 6.00 Build 0)  -->
<svg version="1.1" id="Layer_1" xmlns="http://www.w3.org/2000/svg" xmlns:xlink="http://www.w3.org/1999/xlink" x="0px" y="0px"
	 viewBox="0 0 2000 600" style="enable-background:new 0 0 2000 600;" xml:space="preserve">
<style type="text/css">
	.st0{fill:#1A0A29;}
	.st1{fill:#E0064B;}
	.st2{fill:#FF0055;}
	.st3{fill:#170426;}
	.st4{fill:#FCFCFC;}
	.st5{fill:#E6E6E6;}
</style>
<g>
	<path class="st3" d="M1489.5,185.5c-35.3,0-57.5,25.1-57.5,67v38.6c0,42.9,22.2,66.6,57.5,66.6s57.5-23.7,57.5-66.6v-38.6
		C1547,210.6,1524.8,185.5,1489.5,185.5z M1489.5,401.7c-66.6,0-110.6-45.1-110.6-128.8c0-85.9,44-130.6,110.6-130.6
		c66.6,0,110.6,44.8,110.6,130.6C1600.1,356.6,1556.1,401.7,1489.5,401.7z"/>
	<path class="st3" d="M1874.4,401.7c44.5,0,76.9-13.9,76.9-57.3c0-38.4-19.2-47.3-58.4-53.7l-23.8-3.9c-13.9-2.1-19.2-7.1-19.2-18.1
		c0-11.7,6.4-16,22.1-16c14.2,0,23.6,5.9,26,15.4c0.8,3.1,3.7,5.2,6.9,5.2h34.3c4.2,0,7.5-3.6,7.1-7.8
		c-3.5-37.8-33.4-51.3-75.8-51.3c-40.9,0-70.8,16-70.8,55.9c0,36.3,17.4,48.7,54.1,54.8l26.3,4.3c14.6,2.5,22.4,3.2,22.4,17.8
		c0,14.9-12.8,17.8-28.1,17.8c-15.7,0-26.6-6.9-30.5-18.2c-1-2.9-3.7-4.9-6.8-4.9h-33.4c-4.6,0-8,4.3-6.9,8.8
		C1805.9,388.1,1832,401.7,1874.4,401.7z"/>
	<path class="st3" d="M1262.9,397.8h43.2c2,0,3.6-1.6,3.6-3.6v-85.7c0-34,20.4-43.6,48.3-44.3c1.9,0,3.5-1.6,3.5-3.6v-43.5
		c0-2.1-1.7-3.7-3.8-3.6c-19.6,1.3-34.9,12.8-45.3,29.6c-0.8,1.2-2.6,0.7-2.6-0.8v-24.5c0-2.3-2.1-4-4.4-3.5l-43.2,10.1
		c-1.6,0.4-2.8,1.8-2.8,3.5v166.2C1259.3,396.2,1260.9,397.8,1262.9,397.8z"/>
	<path class="st3" d="M756.1,401.7c26.2,0,38.9-8.4,49.1-30.7c0.6-1.4,2.7-0.9,2.7,0.6v19c0,3.9,3.2,7.1,7.1,7.1h35.4
		c3.9,0,7.1-3.2,7.1-7.1V222.4c0-4.6-4.3-8-8.8-7l-35.4,8.2c-3.2,0.8-5.5,3.6-5.5,7v86.8c0,20.4-8.9,43.9-33.6,43.9
		c-18.6,0-27.5-16.4-27.5-36.8V222.4c0-4.6-4.3-8-8.8-7l-35,8.2c-3.2,0.8-5.5,3.6-5.5,7v107.2C697.5,379.2,718.6,401.7,756.1,401.7z
		"/>
	<g>
		<path class="st3" d="M1716.3,213.9c-21.3,0-35.7,7.7-47.7,23.8c-0.8,1.1-2.6,0.5-2.6-0.9V223c0-4.6-4.3-8-8.8-7l-34.9,8.3
			c-3.2,0.8-5.5,3.6-5.5,7v224c0,3.9,3.2,7.1,7.1,7.1h34.9c3.9,0,7.1-3.2,7.1-7.1v-76.4c0-1.4,1.9-2,2.6-0.7
			c10.1,16.2,26.8,23.4,47.6,23.4c47.8,0,69.2-36.7,69.2-83.1v-23.2C1785.5,248.5,1762.3,213.9,1716.3,213.9z M1734,317
			c0,24.7-6.8,39.3-32.9,39.3c-22.9,0-35-16.1-35-39.3v-19.6c0-25,10-41.4,35-41.4c23.9,0,32.9,17.5,32.9,41.4V317z"/>
	</g>
	<g>
		<path class="st3" d="M983.5,213.7c-22,0-36.8,8.3-49,25.6c-0.4,0.6-1.3,0.3-1.3-0.4v-16.2c0-4.6-4.3-8-8.8-7l-34.9,8.3
			c-3.2,0.8-5.5,3.6-5.5,7v224c0,3.9,3.2,7.1,7.1,7.1h34.9c3.9,0,7.1-3.2,7.1-7.1V376c0-0.7,1-1,1.3-0.3
			c9.9,17.8,27.1,25.6,48.9,25.6c47.8,0,69.2-36.7,69.2-83.1V295C1052.7,248.3,1029.5,213.7,983.5,213.7z M1001.2,316.8
			c0,24.7-6.8,39.3-32.9,39.3c-22.9,0-35-16.1-35-39.3v-19.6c0-25,10-41.4,35-41.4c23.9,0,32.9,17.5,32.9,41.4V316.8z"/>
	</g>
	<g>
		<path class="st3" d="M1232.5,298.4c0-50.7-29.5-84.2-79.5-84.2c-47.5,0-84.2,25.6-84.2,82.8v23.4c0,52.9,34.9,81.3,82.8,81.3
			c38.1,0,67.9-14.9,77.5-48.4c1.3-4.6-2.1-9.2-6.8-9.2l-35.9,0c-2,0-3.8,1-4.8,2.7c-3.1,5.7-12.7,11-26,11
			c-16.9,0-29.9-9.4-33.1-24.5c-0.6-3.5-1.3-7.1-1.7-11.4c-0.1-0.8,0.6-1.6,1.4-1.6l103.2,0c3.9,0,7.1-3.2,7.1-7.1V298.4z
			 M1121.6,290.3c-0.8,0-1.4-0.7-1.4-1.5c0.5-19.9,10.5-33.5,32.1-33.5c21.7,0,30.3,12.6,30.7,33.5c0,0.8-0.6,1.5-1.4,1.5H1121.6z"
			/>
	</g>
	<g>
		<g>
			<path class="st1" d="M128.3,504.1l0-72.3c0-2.7,1.5-5.1,3.9-6.5l263.9-145.8v85c0,3-1.7,5.8-4.4,7.3L140.4,510.6
				C135,513.6,128.3,509.9,128.3,504.1z"/>
			<path class="st2" d="M238.9,270.8L381.3,360c0,0,7,3.6,7.2,8.1c0.3,4.5-3.7,7.5-3.7,7.5s3.9-2.2,6.9-3.8c2.3-1.3,3.9-3.5,4.3-6.1
				c0-0.3,0.1-0.6,0.1-0.9v-95.6c0-2.6-1.4-5.1-3.7-6.6l-71.3-44.7c-2.6-1.7-6.1-1.7-8.8-0.2l-73,40.3
				C234.8,260.5,234.3,267.9,238.9,270.8z"/>
		</g>
		<g>
			<path class="st1" d="M316.6,95.9l0,72.3c0,2.7-1.5,5.1-3.9,6.5L48.8,320.6v-85c0-3,1.7-5.8,4.4-7.3L304.4,89.4
				C309.8,86.4,316.6,90.1,316.6,95.9z"/>
			<path class="st2" d="M206,329.2L63.6,240c0,0-7-3.6-7.2-8.1c-0.3-4.5,3.7-7.5,3.7-7.5s-3.9,2.2-6.9,3.8c-2.3,1.3-3.9,3.5-4.3,6.1
				c0,0.3-0.1,0.6-0.1,0.9v95.6c0,2.6,1.4,5.1,3.7,6.6l71.3,44.7c2.6,1.7,6.1,1.7,8.8,0.2l73-40.3C210,339.5,210.6,332.1,206,329.2z
				"/>
		</g>
	</g>
	<path class="st3" d="M593.7,401.7c53.2,0,86.5-20.6,86.5-73.4c0-45.2-24.2-59.7-65.1-75.6l-25.7-10.9
		c-13.4-5.1-32.2-10.1-32.2-30.7c0-16.6,11.2-25,31.5-25c22.1,0,34,8,36.9,28.2c0.4,3.6,3.6,6.1,6.9,6.1h35.1c4.3,0,7.6-3.6,7.2-7.6
		c-4.7-46.7-36.9-70.5-86.1-70.5c-51.7,0-82.5,27.9-82.5,70.2c0,44.1,25,60.4,62.6,73.4l24.2,8.7c20.3,7.2,35.8,13.4,35.8,35.8
		c0,22.1-13.7,27.5-35.4,27.5c-25.3,0-36.9-6.9-43-31.1c-0.7-3.3-4-5.4-7.2-5.4H508c-4.3,0-7.7,3.9-6.9,8.3
		C510.4,379.3,540.1,401.7,593.7,401.7z"/>
</g>
</svg>
